<svg width="12" height="12" viewBox="0 0 12 12" fill="none" xmlns="http://www.w3.org/2000/svg">
<g id="Icon">
<path id="Shape" fill-rule="evenodd" clip-rule="evenodd" d="M2.5 5.01718C2.50208 5.04743 2.50182 5.05513 2.50698 5.08508C2.5186 5.15243 2.54413 5.21721 2.58163 5.27436C2.60058 5.30327 2.62263 5.32849 2.64616 5.35369L5.64628 8.35382C5.66846 8.37452 5.67351 8.3803 5.69774 8.39867C5.72494 8.4193 5.75426 8.43713 5.78512 8.4518C5.9199 8.5159 6.07983 8.5159 6.21461 8.4518C6.24546 8.43713 6.27479 8.4193 6.30199 8.39867C6.32619 8.3803 6.33126 8.37452 6.35342 8.35382L9.35354 5.35369C9.37424 5.33152 9.38004 5.32644 9.3984 5.30224C9.44662 5.23869 9.47917 5.16369 9.49275 5.08508C9.5024 5.02895 9.5024 4.97128 9.49275 4.91515C9.485 4.87027 9.4711 4.8265 9.45155 4.78537C9.37727 4.62916 9.22319 4.52041 9.05113 4.50271C8.98313 4.49573 8.91387 4.50286 8.84872 4.52353C8.79444 4.54076 8.74322 4.56728 8.69787 4.60169C8.67364 4.62006 8.66859 4.62584 8.64641 4.64654L5.99985 7.2931L3.35329 4.64654L3.32834 4.62324C3.30483 4.60411 3.29936 4.59866 3.27396 4.58201C3.22636 4.55078 3.17343 4.52778 3.11813 4.51431C3.07387 4.50353 3.02817 4.49883 2.98267 4.50038C2.80979 4.50628 2.64866 4.60429 2.56388 4.75504C2.53598 4.80467 2.51665 4.85905 2.50698 4.91515C2.50182 4.9451 2.50208 4.9528 2.5 4.98305C2.5 4.99443 2.5 5.0058 2.5 5.01718Z" fill="#2E6663"/>
</g>
</svg>
