<svg width="12" height="12" viewBox="0 0 12 12" fill="none" xmlns="http://www.w3.org/2000/svg">
<g id="Icon">
<path id="Shape" fill-rule="evenodd" clip-rule="evenodd" d="M2.5 6.9827C2.50208 6.95245 2.50182 6.94475 2.50698 6.9148C2.5186 6.84744 2.54413 6.78267 2.58163 6.72551C2.60058 6.69661 2.62263 6.67139 2.64616 6.64618L5.64628 3.64606C5.66846 3.62536 5.67351 3.61958 5.69774 3.6012C5.72494 3.58058 5.75426 3.56275 5.78512 3.54808C5.9199 3.48397 6.07983 3.48397 6.21461 3.54808C6.24546 3.56275 6.27479 3.58058 6.30199 3.6012C6.32619 3.61958 6.33126 3.62536 6.35342 3.64606L9.35354 6.64618C9.37424 6.66836 9.38004 6.67344 9.3984 6.69764C9.44662 6.76119 9.47917 6.83619 9.49275 6.9148C9.5024 6.97092 9.5024 7.0286 9.49275 7.08473C9.485 7.12961 9.4711 7.17338 9.45155 7.21451C9.37727 7.37072 9.22319 7.47947 9.05113 7.49717C8.98313 7.50415 8.91387 7.49702 8.84872 7.47635C8.79444 7.45912 8.74322 7.43259 8.69787 7.39819C8.67364 7.37982 8.66859 7.37404 8.64641 7.35334L5.99985 4.70678L3.35329 7.35334L3.32834 7.37664C3.30483 7.39577 3.29936 7.40122 3.27396 7.41787C3.22636 7.44909 3.17343 7.4721 3.11813 7.48557C3.07387 7.49635 3.02817 7.50105 2.98267 7.4995C2.80979 7.4936 2.64866 7.39559 2.56388 7.24484C2.53598 7.19521 2.51665 7.14083 2.50698 7.08473C2.50182 7.05478 2.50208 7.04708 2.5 7.01683C2.5 7.00545 2.5 6.99407 2.5 6.9827Z" fill="#2E6663"/>
</g>
</svg>
