<svg width="68" height="166" viewBox="0 0 68 166" fill="none" xmlns="http://www.w3.org/2000/svg">
<path d="M1.79688 166L0.953125 154.188L18.3906 150.25C18.7656 149.312 19.0469 147.062 19.2344 143.5C19.4219 139.938 19.5156 135.156 19.5156 129.156C19.7031 123.156 19.7969 116.125 19.7969 108.062V59.125C19.7969 50.875 19.7031 43.75 19.5156 37.75C19.5156 31.5625 19.4219 26.6875 19.2344 23.125C19.0469 19.5625 18.7656 17.4062 18.3906 16.6562L0.953125 12.7188L1.79688 0.90625H66.4844L67.3281 12.7188L49.8906 16.6562C49.5156 17.4062 49.1406 19.4688 48.7656 22.8438C48.5781 26.2188 48.3906 30.9063 48.2031 36.9062C48.2031 42.9062 48.2031 50.3125 48.2031 59.125V108.062C48.2031 116.688 48.2031 124 48.2031 130C48.3906 135.812 48.5781 140.406 48.7656 143.781C49.1406 147.156 49.5156 149.312 49.8906 150.25L67.3281 154.188L66.4844 166H1.79688Z" fill="#2E6663"/>
</svg>
