<svg width="157" height="166" viewBox="0 0 157 166" fill="none" xmlns="http://www.w3.org/2000/svg">
<path d="M0.9375 166L0.09375 154.188L17.5312 150.25C17.9062 149.312 18.1875 147.062 18.375 143.5C18.5625 139.938 18.6562 135.156 18.6562 129.156C18.8438 123.156 18.9375 116.125 18.9375 108.062V59.125C18.9375 50.875 18.8438 43.75 18.6562 37.75C18.6562 31.5625 18.5625 26.6875 18.375 23.125C18.1875 19.5625 17.9062 17.4062 17.5312 16.6562L0.09375 12.7188L0.9375 0.90625H65.625L66.4688 12.7188L49.0312 16.6562C48.6562 17.4062 48.2812 19.4688 47.9062 22.8438C47.7188 26.2188 47.5312 30.9063 47.3438 36.9062C47.3438 42.9062 47.3438 50.3125 47.3438 59.125V108.062C47.3438 116.688 47.3438 124 47.3438 130C47.5312 135.812 47.7188 140.406 47.9062 143.781C48.2812 147.156 48.6562 149.312 49.0312 150.25L66.4688 154.188L65.625 166H0.9375ZM90.6562 166L89.8125 154.188L107.25 150.25C107.625 149.312 107.906 147.062 108.094 143.5C108.281 139.938 108.375 135.156 108.375 129.156C108.562 123.156 108.656 116.125 108.656 108.062V59.125C108.656 50.875 108.562 43.75 108.375 37.75C108.375 31.5625 108.281 26.6875 108.094 23.125C107.906 19.5625 107.625 17.4062 107.25 16.6562L89.8125 12.7188L90.6562 0.90625H155.344L156.188 12.7188L138.75 16.6562C138.375 17.4062 138 19.4688 137.625 22.8438C137.438 26.2188 137.25 30.9063 137.062 36.9062C137.062 42.9062 137.062 50.3125 137.062 59.125V108.062C137.062 116.688 137.062 124 137.062 130C137.25 135.812 137.438 140.406 137.625 143.781C138 147.156 138.375 149.312 138.75 150.25L156.188 154.188L155.344 166H90.6562Z" fill="white"/>
</svg>
