<svg width="247" height="166" viewBox="0 0 247 166" fill="none" xmlns="http://www.w3.org/2000/svg">
<path d="M1.07812 166L0.234375 154.188L17.6719 150.25C18.0469 149.312 18.3281 147.062 18.5156 143.5C18.7031 139.938 18.7969 135.156 18.7969 129.156C18.9844 123.156 19.0781 116.125 19.0781 108.062V59.125C19.0781 50.875 18.9844 43.75 18.7969 37.75C18.7969 31.5625 18.7031 26.6875 18.5156 23.125C18.3281 19.5625 18.0469 17.4062 17.6719 16.6562L0.234375 12.7188L1.07812 0.90625H65.7656L66.6094 12.7188L49.1719 16.6562C48.7969 17.4062 48.4219 19.4688 48.0469 22.8438C47.8594 26.2188 47.6719 30.9063 47.4844 36.9062C47.4844 42.9062 47.4844 50.3125 47.4844 59.125V108.062C47.4844 116.688 47.4844 124 47.4844 130C47.6719 135.812 47.8594 140.406 48.0469 143.781C48.4219 147.156 48.7969 149.312 49.1719 150.25L66.6094 154.188L65.7656 166H1.07812ZM90.7969 166L89.9531 154.188L107.391 150.25C107.766 149.312 108.047 147.062 108.234 143.5C108.422 139.938 108.516 135.156 108.516 129.156C108.703 123.156 108.797 116.125 108.797 108.062V59.125C108.797 50.875 108.703 43.75 108.516 37.75C108.516 31.5625 108.422 26.6875 108.234 23.125C108.047 19.5625 107.766 17.4062 107.391 16.6562L89.9531 12.7188L90.7969 0.90625H155.484L156.328 12.7188L138.891 16.6562C138.516 17.4062 138.141 19.4688 137.766 22.8438C137.578 26.2188 137.391 30.9063 137.203 36.9062C137.203 42.9062 137.203 50.3125 137.203 59.125V108.062C137.203 116.688 137.203 124 137.203 130C137.391 135.812 137.578 140.406 137.766 143.781C138.141 147.156 138.516 149.312 138.891 150.25L156.328 154.188L155.484 166H90.7969ZM180.516 166L179.672 154.188L197.109 150.25C197.484 149.312 197.766 147.062 197.953 143.5C198.141 139.938 198.234 135.156 198.234 129.156C198.422 123.156 198.516 116.125 198.516 108.062V59.125C198.516 50.875 198.422 43.75 198.234 37.75C198.234 31.5625 198.141 26.6875 197.953 23.125C197.766 19.5625 197.484 17.4062 197.109 16.6562L179.672 12.7188L180.516 0.90625H245.203L246.047 12.7188L228.609 16.6562C228.234 17.4062 227.859 19.4688 227.484 22.8438C227.297 26.2188 227.109 30.9063 226.922 36.9062C226.922 42.9062 226.922 50.3125 226.922 59.125V108.062C226.922 116.688 226.922 124 226.922 130C227.109 135.812 227.297 140.406 227.484 143.781C227.859 147.156 228.234 149.312 228.609 150.25L246.047 154.188L245.203 166H180.516Z" fill="#2E6663"/>
</svg>
