<svg width="167" height="56" viewBox="0 0 167 56" fill="none" xmlns="http://www.w3.org/2000/svg">
<path d="M12.3313 19.3817H1.61328C12.3313 -6.01823 45.9534 -6.89913 56.6714 19.3817H45.9534C38.025 6.60841 19.966 6.60841 12.3313 19.3817Z" fill="white"/>
<path d="M9.83705 28.9253H0C0 40.5242 6.60697 50.8017 16.8845 55.5L21.8764 46.9844C18.5575 45.878 15.9075 43.8198 13.9481 41.2619C11.2266 37.7095 9.83705 33.1933 9.83705 28.9253Z" fill="white"/>
<path d="M21.8776 46.9843C18.5587 45.878 15.9087 43.8198 13.9492 41.2619L20.9967 29.0721H37.5875L44.4881 41.2619C42.5286 43.8197 39.8787 45.878 36.5597 46.9843L29.2187 34.6513L21.8776 46.9843Z" fill="white"/>
<path d="M48.5965 28.9253H58.4336C58.4336 40.5242 51.8266 50.8017 41.5491 55.5L36.5572 46.9844C39.8761 45.878 42.5261 43.8198 44.4855 41.2619C47.207 37.7095 48.5965 33.1933 48.5965 28.9253Z" fill="white"/>
<path d="M89.9461 36.4929L82.6653 54.7934H80.9064L72.3577 32.5684L70.3125 31.99L70.3943 30.4202H78.3704L78.4932 31.99L76.4071 32.5271L83.1152 50.5798H82.2563L88.7599 33.188L89.9461 36.4929ZM95.6725 54.7934L87.2056 32.5684L85.1604 31.99L85.2422 30.4202H93.5456L93.6683 31.99L91.1732 32.5271L97.7995 50.5798H96.9814L103.444 32.5684L100.54 31.99L100.663 30.4202H108.189L108.312 31.99L106.226 32.5684L97.4314 54.7934H95.6725Z" fill="white"/>
<path d="M116.86 55C115.279 55 113.847 54.642 112.566 53.9259C111.311 53.2099 110.302 52.1909 109.539 50.8689C108.802 49.5195 108.434 47.9359 108.434 46.1182C108.434 44.1629 108.83 42.4691 109.621 41.037C110.411 39.6049 111.448 38.5033 112.729 37.7322C114.011 36.9335 115.388 36.548 116.86 36.5755C118.987 36.603 120.651 37.3191 121.851 38.7236C123.05 40.1282 123.65 42.1111 123.65 44.6724V45.416H111.093V43.5983H120.951L120.501 44.1353V43.2678C120.501 41.6705 120.146 40.4449 119.437 39.5912C118.728 38.7374 117.76 38.3105 116.533 38.3105C115.77 38.3105 115.033 38.5446 114.324 39.0128C113.615 39.4535 113.043 40.142 112.606 41.0783C112.17 41.9872 111.952 43.1439 111.952 44.5484V45.0442C111.952 47.3025 112.497 49.0651 113.588 50.3319C114.706 51.5988 116.138 52.2322 117.883 52.2322C118.837 52.2322 119.696 52.0394 120.46 51.6538C121.223 51.2683 121.96 50.6486 122.669 49.7949L123.691 50.745C122.928 52.1771 121.96 53.2512 120.787 53.9672C119.615 54.6557 118.306 55 116.86 55Z" fill="white"/>
<path d="M128.15 53.5541C128.177 52.5902 128.191 51.7502 128.191 51.0342C128.218 50.3181 128.232 49.6296 128.232 48.9687C128.232 48.2802 128.232 47.5503 128.232 46.7792V39.6738C128.232 38.7374 128.218 37.7322 128.191 36.6581C128.191 35.5565 128.177 34.51 128.15 33.5185C128.15 32.4995 128.136 31.6182 128.109 30.8746C128.109 30.1311 128.109 29.6353 128.109 29.3875L125.082 29.0157L125 27.6937L130.768 26L131.545 26.5783C131.517 27.735 131.49 28.8917 131.463 30.0484C131.436 31.2051 131.408 32.5408 131.381 34.0556C131.354 35.5703 131.327 37.443 131.299 39.6738L131.422 39.7151C132.076 38.7787 132.908 38.0214 133.917 37.443C134.953 36.8647 136.058 36.5755 137.23 36.5755C138.594 36.5755 139.848 36.906 140.993 37.567C142.139 38.2279 143.052 39.1918 143.734 40.4587C144.443 41.7255 144.797 43.254 144.797 45.0442C144.797 46.9995 144.334 48.7346 143.407 50.2493C142.507 51.7365 141.293 52.9069 139.766 53.7607C138.239 54.5869 136.549 55 134.694 55C133.522 55 132.363 54.8761 131.217 54.6282C130.072 54.3528 129.05 53.9948 128.15 53.5541ZM135.594 52.8932C137.203 52.8932 138.526 52.2735 139.562 51.0342C140.625 49.7949 141.171 48.0461 141.198 45.7878C141.252 43.5845 140.734 41.9596 139.644 40.9131C138.58 39.839 137.285 39.302 135.758 39.302C134.94 39.302 134.135 39.4948 133.344 39.8803C132.581 40.2384 131.913 40.8029 131.34 41.5741V51.6125C131.886 51.9981 132.499 52.3148 133.181 52.5627C133.89 52.783 134.694 52.8932 135.594 52.8932Z" fill="white"/>
<path d="M149.665 53.5541C149.692 52.5902 149.706 51.7502 149.706 51.0342C149.733 50.3181 149.747 49.6296 149.747 48.9687C149.747 48.2802 149.747 47.5503 149.747 46.7792V39.6738C149.747 38.7374 149.733 37.7322 149.706 36.6581C149.706 35.5565 149.692 34.51 149.665 33.5185C149.665 32.4995 149.651 31.6182 149.624 30.8746C149.624 30.1311 149.624 29.6353 149.624 29.3875L146.597 29.0157L146.515 27.6937L152.283 26L153.06 26.5783C153.033 27.735 153.005 28.8917 152.978 30.0484C152.951 31.2051 152.923 32.5408 152.896 34.0556C152.869 35.5703 152.842 37.443 152.814 39.6738L152.937 39.7151C153.592 38.7787 154.423 38.0214 155.432 37.443C156.468 36.8647 157.573 36.5755 158.745 36.5755C160.109 36.5755 161.363 36.906 162.508 37.567C163.654 38.2279 164.567 39.1918 165.249 40.4587C165.958 41.7255 166.312 43.254 166.312 45.0442C166.312 46.9995 165.849 48.7346 164.922 50.2493C164.022 51.7365 162.808 52.9069 161.281 53.7607C159.754 54.5869 158.064 55 156.209 55C155.037 55 153.878 54.8761 152.733 54.6282C151.587 54.3528 150.565 53.9948 149.665 53.5541ZM157.109 52.8932C158.718 52.8932 160.041 52.2735 161.077 51.0342C162.14 49.7949 162.686 48.0461 162.713 45.7878C162.768 43.5845 162.249 41.9596 161.159 40.9131C160.095 39.839 158.8 39.302 157.273 39.302C156.455 39.302 155.65 39.4948 154.86 39.8803C154.096 40.2384 153.428 40.8029 152.855 41.5741V51.6125C153.401 51.9981 154.014 52.3148 154.696 52.5627C155.405 52.783 156.209 52.8932 157.109 52.8932Z" fill="white"/>
<path d="M79.8222 22C78.0768 22 76.4818 21.6558 75.0373 20.9673C73.6128 20.2579 72.4692 19.2148 71.6065 17.8378C70.7438 16.44 70.3125 14.7188 70.3125 12.6743C70.3125 11.3599 70.5332 10.129 70.9746 8.98151C71.4159 7.81318 72.058 6.7909 72.9006 5.91465C73.7633 5.01754 74.8065 4.31863 76.0304 3.81792C77.2542 3.31721 78.6486 3.06686 80.2134 3.06686C81.036 3.06686 81.9087 3.15031 82.8316 3.31721C83.7545 3.48412 84.5771 3.72404 85.2993 4.03698L85.51 8.32432L84.1558 8.4495L83.2529 5.47653C82.8717 5.20531 82.3702 5.00711 81.7482 4.88193C81.1263 4.73589 80.5244 4.66287 79.9426 4.66287C78.4379 4.66287 77.204 5.00711 76.241 5.69559C75.2981 6.36321 74.5959 7.26031 74.1344 8.38691C73.6931 9.51351 73.4724 10.7549 73.4724 12.111C73.4724 13.8843 73.7633 15.3864 74.3451 16.6174C74.947 17.8483 75.7495 18.7767 76.7526 19.4026C77.7758 20.0285 78.8993 20.3414 80.1232 20.3414C80.7652 20.3414 81.347 20.2684 81.8686 20.1223C82.3902 19.9763 82.8918 19.7572 83.3733 19.4651L84.6975 16.5235L86.0818 16.6799L85.2391 20.623C84.557 20.9986 83.7445 21.322 82.8015 21.5932C81.8586 21.8644 80.8655 22 79.8222 22Z" fill="white"/>
<path d="M87.8573 21.7183L87.7971 20.5917L89.663 20.1223C89.7031 19.8928 89.7332 19.5486 89.7533 19.0896C89.7733 18.6098 89.7833 17.9734 89.7833 17.1807C89.8034 16.3879 89.8134 15.4177 89.8134 14.2703V10.3585C89.8134 9.64912 89.8034 8.88762 89.7833 8.07397C89.7833 7.26031 89.7733 6.47795 89.7533 5.72688C89.7533 4.95496 89.7432 4.28734 89.7232 3.72404C89.7232 3.16074 89.7131 2.78521 89.6931 2.59744L87.4661 2.2845L87.4059 1.28307L91.6492 0L92.221 0.438122C92.2009 1.08487 92.1808 1.73163 92.1608 2.37838C92.1407 3.02513 92.1207 3.72404 92.1006 4.47511C92.1006 5.20531 92.0906 6.03983 92.0705 6.97866C92.0705 7.9175 92.0705 9.00237 92.0705 10.2333L92.1608 10.2646C92.863 9.47179 93.5451 8.89806 94.2072 8.54339C94.8893 8.18871 95.6316 8.01138 96.4341 8.01138C97.1765 8.01138 97.8686 8.20958 98.5106 8.60597C99.1727 9.00237 99.7043 9.6074 100.106 10.4211C100.527 11.2138 100.738 12.2361 100.738 13.4879V16.8677C100.738 17.6188 100.758 18.2968 100.798 18.9018C100.838 19.486 100.878 19.8928 100.918 20.1223L102.784 20.5917L102.724 21.7183H96.6749L96.5846 20.5917L98.3301 20.1223C98.3501 19.9554 98.3702 19.7468 98.3902 19.4964C98.4103 19.2461 98.4203 18.9331 98.4203 18.5576C98.4404 18.1612 98.4504 17.6709 98.4504 17.0868V13.707C98.4504 12.8099 98.3 12.0901 97.999 11.5477C97.7181 10.9844 97.347 10.5775 96.8855 10.3272C96.4241 10.056 95.9326 9.92034 95.4109 9.92034C94.7689 9.92034 94.157 10.0977 93.5752 10.4523C92.9934 10.7862 92.5018 11.2556 92.1006 11.8606V16.5548C92.1006 17.5145 92.1106 18.3073 92.1307 18.9331C92.1708 19.559 92.2109 19.9554 92.2511 20.1223L94.0868 20.5917L94.0266 21.7183H87.8573Z" fill="white"/>
<path d="M104.469 21.7183L104.379 20.5917L106.245 20.1223C106.265 20.018 106.285 19.8303 106.305 19.559C106.325 19.2878 106.335 18.9227 106.335 18.4637C106.355 18.0047 106.365 17.4414 106.365 16.7738L106.395 14.3329C106.395 13.6444 106.365 12.9663 106.305 12.2987C106.265 11.6311 106.215 11.0991 106.155 10.7027L104.228 10.2646V9.23186L108.261 8.07397L108.682 8.51209L108.562 11.1408L108.652 11.1721C109.254 9.96207 109.866 9.14841 110.488 8.73115C111.11 8.29303 111.692 8.07397 112.234 8.07397C112.695 8.07397 113.076 8.19915 113.377 8.4495C113.698 8.679 113.859 9.03367 113.859 9.51351C113.859 10.0142 113.688 10.4002 113.347 10.6714C113.026 10.9218 112.615 11.0469 112.113 11.0469C111.752 11.0469 111.401 10.9635 111.06 10.7966C110.739 10.6297 110.428 10.4002 110.127 10.1081L110.669 10.2959C110.287 10.5462 109.926 10.9009 109.585 11.3599C109.244 11.798 108.933 12.3509 108.652 13.0185L108.682 15.9289C108.702 16.4505 108.723 16.9929 108.743 17.5562C108.763 18.1195 108.783 18.6306 108.803 19.0896C108.823 19.5277 108.843 19.872 108.863 20.1223L111.481 20.5292L111.421 21.7183H104.469Z" fill="white"/>
<path d="M121.502 21.9687C120.198 21.9687 119.055 21.6766 118.072 21.0925C117.109 20.5083 116.356 19.6946 115.815 18.6515C115.273 17.5875 115.002 16.3774 115.002 15.0213C115.002 13.6027 115.303 12.3717 115.905 11.3286C116.507 10.2854 117.309 9.47179 118.312 8.88762C119.316 8.30346 120.419 8.01138 121.623 8.01138C122.867 8.01138 123.95 8.30346 124.873 8.88762C125.816 9.45092 126.538 10.2541 127.04 11.2973C127.561 12.3196 127.822 13.5192 127.822 14.8962C127.822 16.2105 127.541 17.3997 126.98 18.4637C126.418 19.5277 125.655 20.3831 124.692 21.0299C123.749 21.6558 122.686 21.9687 121.502 21.9687ZM121.803 20.4979C122.486 20.4979 123.077 20.2892 123.579 19.872C124.081 19.4339 124.472 18.8393 124.753 18.0882C125.034 17.3163 125.174 16.44 125.174 15.4595C125.174 13.6652 124.813 12.2153 124.091 11.1095C123.388 9.98293 122.455 9.41963 121.292 9.41963C120.208 9.41963 119.336 9.88905 118.674 10.8279C118.032 11.7667 117.711 13.0081 117.711 14.5519C117.711 15.7202 117.881 16.753 118.222 17.6501C118.583 18.5472 119.075 19.2461 119.697 19.7468C120.319 20.2475 121.021 20.4979 121.803 20.4979Z" fill="white"/>
<path d="M130.019 21.7183L129.959 20.5917L131.825 20.1223C131.845 19.9763 131.855 19.7885 131.855 19.559C131.875 19.3295 131.895 18.9957 131.915 18.5576C131.935 18.1195 131.945 17.5249 131.945 16.7738L131.975 14.3329C131.995 13.8947 131.985 13.4462 131.945 12.9872C131.925 12.5282 131.895 12.1005 131.855 11.7041C131.815 11.2869 131.775 10.9531 131.734 10.7027L129.808 10.2646V9.23186L133.841 8.07397L134.353 8.57468L134.202 10.2646L134.292 10.2959C134.914 9.48222 135.556 8.89806 136.218 8.54339C136.901 8.18871 137.593 8.01138 138.295 8.01138C138.997 8.01138 139.679 8.20958 140.341 8.60597C141.003 9.00237 141.545 9.6074 141.966 10.4211C142.408 11.2347 142.628 12.2779 142.628 13.5505L142.659 16.8677C142.659 17.6188 142.669 18.2968 142.689 18.9018C142.729 19.486 142.779 19.8928 142.839 20.1223L144.645 20.5917L144.555 21.7183H138.686L138.596 20.5917L140.251 20.1223C140.271 19.9554 140.291 19.7468 140.311 19.4964C140.331 19.2461 140.341 18.9331 140.341 18.5576C140.361 18.1612 140.371 17.6709 140.371 17.0868L140.341 13.6444C140.341 12.7473 140.201 12.0275 139.92 11.4851C139.659 10.9426 139.308 10.5462 138.867 10.2959C138.425 10.0455 137.954 9.92034 137.452 9.92034C136.83 9.92034 136.249 10.0768 135.707 10.3898C135.165 10.7027 134.684 11.193 134.262 11.8606V16.5548C134.262 17.5145 134.272 18.2968 134.292 18.9018C134.333 19.486 134.373 19.8928 134.413 20.1223L136.188 20.5917L136.098 21.7183H130.019ZM146.992 21.7183L146.902 20.5917L148.617 20.1223C148.637 19.9554 148.647 19.7468 148.647 19.4964C148.667 19.2461 148.687 18.9331 148.707 18.5576C148.728 18.1612 148.738 17.6709 148.738 17.0868V13.6757C148.738 12.7577 148.587 12.0275 148.286 11.4851C147.985 10.9426 147.604 10.5462 147.143 10.2959C146.701 10.0455 146.25 9.92034 145.788 9.92034C145.106 9.92034 144.474 10.0977 143.892 10.4523C143.311 10.807 142.789 11.3495 142.328 12.0797L141.756 10.9218C142.458 9.92034 143.2 9.19014 143.983 8.73115C144.785 8.2513 145.628 8.01138 146.511 8.01138C147.353 8.01138 148.116 8.22001 148.798 8.63727C149.48 9.05453 150.022 9.65955 150.423 10.4523C150.824 11.2451 151.025 12.2048 151.025 13.3314V16.8677C151.025 17.6188 151.035 18.2968 151.055 18.9018C151.095 19.486 151.135 19.8928 151.175 20.1223L153.041 20.5917L152.981 21.7183H146.992Z" fill="white"/>
<path d="M161.287 21.9687C160.123 21.9687 159.07 21.6975 158.127 21.1551C157.204 20.6126 156.462 19.8407 155.9 18.8393C155.358 17.817 155.087 16.6174 155.087 15.2404C155.087 13.7591 155.378 12.4761 155.96 11.3912C156.542 10.3063 157.304 9.47179 158.247 8.88762C159.19 8.2826 160.203 7.99052 161.287 8.01138C162.852 8.03224 164.076 8.57468 164.958 9.63869C165.841 10.7027 166.282 12.2048 166.282 14.1451V14.7084H157.044V13.3314H164.296L163.965 13.7383V13.0811C163.965 11.871 163.704 10.9426 163.183 10.2959C162.661 9.64912 161.949 9.32575 161.046 9.32575C160.484 9.32575 159.943 9.50308 159.421 9.85775C158.899 10.1916 158.478 10.7131 158.157 11.4225C157.836 12.111 157.676 12.9872 157.676 14.0512V14.4267C157.676 16.1375 158.077 17.4727 158.879 18.4324C159.702 19.3921 160.755 19.872 162.039 19.872C162.741 19.872 163.373 19.7259 163.935 19.4339C164.497 19.1418 165.039 18.6724 165.56 18.0256L166.312 18.7454C165.751 19.8303 165.039 20.6439 164.176 21.1863C163.313 21.7079 162.35 21.9687 161.287 21.9687Z" fill="white"/>
</svg>
