<svg width="196" height="66" viewBox="0 0 196 66" fill="none" xmlns="http://www.w3.org/2000/svg">
<path d="M14.4888 22.8427H1.89844C14.4888 -7.09292 53.9847 -8.13111 66.5751 22.8427H53.9847C44.6713 7.78848 23.4573 7.78848 14.4888 22.8427Z" fill="white"/>
<path d="M11.5556 34.0905H0C0 47.7607 7.7612 59.8734 19.8342 65.4107L25.6982 55.3744C21.7995 54.0705 18.6866 51.6447 16.3848 48.6301C13.1879 44.4433 11.5556 39.1207 11.5556 34.0905Z" fill="white"/>
<path d="M25.7002 55.3744C21.8014 54.0705 18.6885 51.6447 16.3867 48.6301L24.6653 34.2635H44.1546L52.2607 48.6301C49.9589 51.6447 46.846 54.0705 42.9473 55.3743L34.3237 40.8391L25.7002 55.3744Z" fill="white"/>
<path d="M57.089 34.0905H68.6445C68.6445 47.7607 60.8833 59.8734 48.8103 65.4107L42.9463 55.3744C46.845 54.0705 49.958 51.6447 52.2598 48.6301C55.4566 44.4433 57.089 39.1207 57.089 34.0905Z" fill="white"/>
<path d="M105.661 43.0095L97.1085 64.578H95.0424L85.0001 38.3842L82.5977 37.7026L82.6938 35.8524H92.0633L92.2075 37.7026L89.757 38.3355L97.637 59.6119H96.628L104.268 39.1145L105.661 43.0095ZM112.388 64.578L102.442 38.3842L100.039 37.7026L100.136 35.8524H109.89L110.034 37.7026L107.103 38.3355L114.887 59.6119H113.926L121.517 38.3842L118.106 37.7026L118.25 35.8524H127.091L127.235 37.7026L124.785 38.3842L114.454 64.578H112.388Z" fill="white"/>
<path d="M137.277 64.8215C135.42 64.8215 133.738 64.3995 132.232 63.5556C130.759 62.7117 129.574 61.5107 128.677 59.9527C127.812 58.3623 127.379 56.4959 127.379 54.3537C127.379 52.0491 127.844 50.0529 128.773 48.3651C129.702 46.6773 130.919 45.3789 132.425 44.4701C133.93 43.5288 135.548 43.0744 137.277 43.1069C139.776 43.1393 141.73 43.9832 143.139 45.6386C144.549 47.294 145.254 49.631 145.254 52.6496V53.526H130.503V51.3837H142.082L141.554 52.0167V50.9942C141.554 49.1116 141.137 47.6673 140.305 46.661C139.472 45.6548 138.335 45.1517 136.893 45.1517C135.996 45.1517 135.131 45.4276 134.298 45.9794C133.466 46.4988 132.793 47.3102 132.28 48.4138C131.768 49.4849 131.512 50.8482 131.512 52.5035V53.0878C131.512 55.7494 132.152 57.8267 133.434 59.3198C134.747 60.8129 136.429 61.5594 138.479 61.5594C139.6 61.5594 140.609 61.3322 141.506 60.8778C142.403 60.4234 143.268 59.693 144.1 58.6868L145.302 59.8066C144.405 61.4945 143.268 62.7604 141.89 63.6043C140.513 64.4157 138.975 64.8215 137.277 64.8215Z" fill="white"/>
<path d="M150.539 63.1174C150.571 61.9814 150.587 60.9914 150.587 60.1475C150.619 59.3035 150.635 58.4921 150.635 57.7131C150.635 56.9016 150.635 56.0415 150.635 55.1327V46.7584C150.635 45.6548 150.619 44.4701 150.587 43.2042C150.587 41.9059 150.571 40.6725 150.539 39.504C150.539 38.303 150.523 37.2644 150.491 36.388C150.491 35.5116 150.491 34.9274 150.491 34.6353L146.935 34.1971L146.839 32.6391L153.614 30.6429L154.527 31.3245C154.495 32.6878 154.463 34.051 154.431 35.4143C154.399 36.7775 154.367 38.3517 154.335 40.1369C154.303 41.9221 154.271 44.1293 154.239 46.7584L154.383 46.8071C155.152 45.7035 156.129 44.8109 157.314 44.1293C158.531 43.4477 159.828 43.1069 161.206 43.1069C162.808 43.1069 164.281 43.4964 165.626 44.2754C166.972 45.0544 168.045 46.1904 168.846 47.6835C169.679 49.1766 170.095 50.978 170.095 53.0878C170.095 55.3923 169.55 57.4372 168.461 59.2224C167.404 60.9751 165.979 62.3546 164.185 63.3608C162.391 64.3346 160.405 64.8215 158.227 64.8215C156.849 64.8215 155.488 64.6754 154.143 64.3833C152.797 64.0587 151.596 63.6367 150.539 63.1174ZM159.284 62.3384C161.174 62.3384 162.727 61.6081 163.945 60.1475C165.194 58.6868 165.835 56.6257 165.867 53.9642C165.931 51.3675 165.322 49.4525 164.041 48.219C162.791 46.9532 161.27 46.3202 159.476 46.3202C158.515 46.3202 157.57 46.5474 156.641 47.0019C155.744 47.4238 154.96 48.0892 154.287 48.998V60.8291C154.927 61.2835 155.648 61.6568 156.449 61.9489C157.282 62.2086 158.227 62.3384 159.284 62.3384Z" fill="white"/>
<path d="M175.813 63.1174C175.845 61.9814 175.861 60.9914 175.861 60.1475C175.893 59.3035 175.909 58.4921 175.909 57.7131C175.909 56.9016 175.909 56.0415 175.909 55.1327V46.7584C175.909 45.6548 175.893 44.4701 175.861 43.2042C175.861 41.9059 175.845 40.6725 175.813 39.504C175.813 38.303 175.797 37.2644 175.765 36.388C175.765 35.5116 175.765 34.9274 175.765 34.6353L172.209 34.1971L172.113 32.6391L178.888 30.6429L179.801 31.3245C179.769 32.6878 179.737 34.051 179.705 35.4143C179.673 36.7775 179.641 38.3517 179.609 40.1369C179.577 41.9221 179.545 44.1293 179.513 46.7584L179.657 46.8071C180.425 45.7035 181.402 44.8109 182.588 44.1293C183.805 43.4477 185.102 43.1069 186.48 43.1069C188.081 43.1069 189.555 43.4964 190.9 44.2754C192.246 45.0544 193.319 46.1904 194.119 47.6835C194.952 49.1766 195.369 50.978 195.369 53.0878C195.369 55.3923 194.824 57.4372 193.735 59.2224C192.678 60.9751 191.253 62.3546 189.459 63.3608C187.665 64.3346 185.679 64.8215 183.501 64.8215C182.123 64.8215 180.762 64.6754 179.416 64.3833C178.071 64.0587 176.87 63.6367 175.813 63.1174ZM184.558 62.3384C186.448 62.3384 188.001 61.6081 189.218 60.1475C190.468 58.6868 191.108 56.6257 191.14 53.9642C191.204 51.3675 190.596 49.4525 189.315 48.219C188.065 46.9532 186.544 46.3202 184.75 46.3202C183.789 46.3202 182.844 46.5474 181.915 47.0019C181.018 47.4238 180.233 48.0892 179.561 48.998V60.8291C180.201 61.2835 180.922 61.6568 181.723 61.9489C182.556 62.2086 183.501 62.3384 184.558 62.3384Z" fill="white"/>
<path d="M93.7687 25.9286C91.7183 25.9286 89.8447 25.5229 88.1478 24.7114C86.4745 23.8754 85.1312 22.646 84.1178 21.0232C83.1044 19.3757 82.5977 17.3472 82.5977 14.9375C82.5977 13.3884 82.8569 11.9377 83.3754 10.5853C83.8939 9.20839 84.648 8.00356 85.6379 6.97084C86.6513 5.91353 87.8768 5.08982 89.3144 4.4997C90.7521 3.90957 92.39 3.61451 94.2283 3.61451C95.1946 3.61451 96.2197 3.71286 97.3039 3.90957C98.388 4.10628 99.3542 4.38905 100.203 4.75787L100.45 9.81081L98.8593 9.95834L97.7988 6.45448C97.351 6.13483 96.7618 5.90124 96.0312 5.75371C95.3006 5.58159 94.5936 5.49553 93.9101 5.49553C92.1425 5.49553 90.6931 5.90124 89.5619 6.71266C88.4542 7.49949 87.6293 8.5568 87.0873 9.88458C86.5688 11.2124 86.3096 12.6754 86.3096 14.2736C86.3096 16.3636 86.6513 18.134 87.3347 19.5847C88.0418 21.0355 88.9845 22.1297 90.1629 22.8673C91.3648 23.605 92.6846 23.9738 94.1222 23.9738C94.8764 23.9738 95.5599 23.8877 96.1726 23.7156C96.7854 23.5435 97.3746 23.2853 97.9402 22.9411L99.4956 19.4741L101.122 19.6585L100.132 24.3057C99.3307 24.7483 98.3762 25.1294 97.2685 25.4491C96.1608 25.7687 94.9942 25.9286 93.7687 25.9286Z" fill="white"/>
<path d="M103.208 25.5966L103.137 24.2688L105.329 23.7156C105.376 23.4451 105.411 23.0394 105.435 22.4985C105.458 21.9329 105.47 21.183 105.47 20.2486C105.494 19.3143 105.505 18.1709 105.505 16.8185V12.2082C105.505 11.3722 105.494 10.4747 105.47 9.51575C105.47 8.5568 105.458 7.63473 105.435 6.74954C105.435 5.83977 105.423 5.05294 105.399 4.38905C105.399 3.72516 105.388 3.28256 105.364 3.06127L102.748 2.69244L102.677 1.51219L107.662 0L108.334 0.516358C108.31 1.2786 108.286 2.04085 108.263 2.80309C108.239 3.56533 108.216 4.38905 108.192 5.27423C108.192 6.13483 108.18 7.11837 108.157 8.22485C108.157 9.33134 108.157 10.6099 108.157 12.0607L108.263 12.0975C109.088 11.1632 109.889 10.487 110.667 10.069C111.468 9.65099 112.34 9.44198 113.283 9.44198C114.155 9.44198 114.968 9.67557 115.722 10.1428C116.5 10.6099 117.124 11.323 117.596 12.282C118.09 13.2163 118.338 14.4212 118.338 15.8965V19.8798C118.338 20.765 118.362 21.5641 118.409 22.2772C118.456 22.9657 118.503 23.4451 118.55 23.7156L120.742 24.2688L120.671 25.5966H113.566L113.459 24.2688L115.51 23.7156C115.533 23.5189 115.557 23.273 115.581 22.978C115.604 22.6829 115.616 22.3141 115.616 21.8715C115.639 21.4043 115.651 20.8265 115.651 20.138V16.1546C115.651 15.0973 115.474 14.249 115.121 13.6097C114.791 12.9458 114.355 12.4664 113.813 12.1713C113.271 11.8517 112.694 11.6918 112.081 11.6918C111.327 11.6918 110.608 11.9008 109.924 12.3188C109.241 12.7123 108.663 13.2655 108.192 13.9786V19.511C108.192 20.642 108.204 21.5764 108.227 22.3141C108.275 23.0517 108.322 23.5189 108.369 23.7156L110.525 24.2688L110.455 25.5966H103.208Z" fill="white"/>
<path d="M122.722 25.5966L122.615 24.2688L124.807 23.7156C124.831 23.5927 124.854 23.3714 124.878 23.0517C124.902 22.7321 124.913 22.3018 124.913 21.7608C124.937 21.2199 124.949 20.556 124.949 19.7692L124.984 16.8923C124.984 16.0809 124.949 15.2818 124.878 14.4949C124.831 13.7081 124.772 13.0811 124.701 12.6139L122.439 12.0975V10.8804L127.176 9.51575L127.671 10.0321L127.529 13.1303L127.635 13.1671C128.342 11.741 129.061 10.7821 129.792 10.2903C130.522 9.77393 131.206 9.51575 131.842 9.51575C132.384 9.51575 132.832 9.66328 133.186 9.95834C133.563 10.2288 133.751 10.6468 133.751 11.2124C133.751 11.8025 133.551 12.2574 133.15 12.577C132.773 12.8721 132.29 13.0196 131.701 13.0196C131.277 13.0196 130.864 12.9213 130.464 12.7245C130.086 12.5278 129.721 12.2574 129.368 11.9131L130.004 12.1344C129.556 12.4295 129.132 12.8475 128.731 13.3884C128.331 13.9048 127.965 14.5564 127.635 15.3432L127.671 18.7733C127.694 19.388 127.718 20.0273 127.741 20.6912C127.765 21.3551 127.789 21.9575 127.812 22.4985C127.836 23.0148 127.859 23.4205 127.883 23.7156L130.958 24.1951L130.888 25.5966H122.722Z" fill="white"/>
<path d="M142.73 25.8917C141.199 25.8917 139.855 25.5475 138.7 24.859C137.569 24.1705 136.685 23.2115 136.049 21.9821C135.413 20.7281 135.095 19.302 135.095 17.7037C135.095 16.0317 135.448 14.581 136.155 13.3516C136.862 12.1221 137.805 11.1632 138.983 10.4747C140.162 9.78622 141.458 9.44198 142.872 9.44198C144.333 9.44198 145.606 9.78622 146.69 10.4747C147.797 11.1386 148.646 12.0852 149.235 13.3147C149.848 14.5195 150.154 15.9333 150.154 17.5562C150.154 19.1053 149.824 20.5068 149.164 21.7608C148.505 23.0148 147.609 24.023 146.478 24.7852C145.37 25.5229 144.121 25.8917 142.73 25.8917ZM143.084 24.1582C143.885 24.1582 144.581 23.9123 145.17 23.4205C145.759 22.9042 146.218 22.2034 146.548 21.3182C146.878 20.4085 147.043 19.3757 147.043 18.2201C147.043 16.1055 146.619 14.3966 145.771 13.0934C144.946 11.7656 143.85 11.1017 142.483 11.1017C141.21 11.1017 140.185 11.6549 139.407 12.7614C138.653 13.8679 138.276 15.3309 138.276 17.1505C138.276 18.5274 138.476 19.7446 138.877 20.8019C139.301 21.8592 139.879 22.6829 140.609 23.273C141.34 23.8631 142.165 24.1582 143.084 24.1582Z" fill="white"/>
<path d="M152.735 25.5966L152.664 24.2688L154.856 23.7156C154.88 23.5435 154.891 23.3222 154.891 23.0517C154.915 22.7812 154.938 22.3878 154.962 21.8715C154.986 21.3551 154.997 20.6543 154.997 19.7692L155.033 16.8923C155.056 16.3759 155.045 15.8473 154.997 15.3063C154.974 14.7654 154.938 14.2613 154.891 13.7941C154.844 13.3024 154.797 12.909 154.75 12.6139L152.487 12.0975V10.8804L157.225 9.51575L157.826 10.1059L157.649 12.0975L157.755 12.1344C158.485 11.1755 159.24 10.487 160.017 10.069C160.819 9.65099 161.632 9.44198 162.457 9.44198C163.281 9.44198 164.083 9.67557 164.86 10.1428C165.638 10.6099 166.275 11.323 166.769 12.282C167.288 13.2409 167.547 14.4703 167.547 15.9702L167.583 19.8798C167.583 20.765 167.594 21.5641 167.618 22.2772C167.665 22.9657 167.724 23.4451 167.795 23.7156L169.916 24.2688L169.81 25.5966H162.916L162.81 24.2688L164.754 23.7156C164.778 23.5189 164.802 23.273 164.825 22.978C164.849 22.6829 164.86 22.3141 164.86 21.8715C164.884 21.4043 164.896 20.8265 164.896 20.138L164.86 16.0809C164.86 15.0236 164.695 14.1753 164.366 13.536C164.059 12.8967 163.647 12.4295 163.128 12.1344C162.61 11.8394 162.056 11.6918 161.467 11.6918C160.736 11.6918 160.053 11.8762 159.416 12.2451C158.78 12.6139 158.214 13.1917 157.719 13.9786V19.511C157.719 20.642 157.731 21.5641 157.755 22.2772C157.802 22.9657 157.849 23.4451 157.896 23.7156L159.982 24.2688L159.876 25.5966H152.735ZM172.673 25.5966L172.567 24.2688L174.582 23.7156C174.606 23.5189 174.617 23.273 174.617 22.978C174.641 22.6829 174.665 22.3141 174.688 21.8715C174.712 21.4043 174.724 20.8265 174.724 20.138V16.1178C174.724 15.0359 174.547 14.1753 174.193 13.536C173.84 12.8967 173.392 12.4295 172.85 12.1344C172.331 11.8394 171.801 11.6918 171.259 11.6918C170.458 11.6918 169.715 11.9008 169.032 12.3188C168.348 12.7368 167.736 13.3761 167.194 14.2367L166.522 12.8721C167.347 11.6918 168.219 10.8312 169.138 10.2903C170.081 9.72475 171.071 9.44198 172.107 9.44198C173.097 9.44198 173.993 9.68787 174.794 10.1796C175.596 10.6714 176.232 11.3845 176.703 12.3188C177.175 13.2532 177.41 14.3843 177.41 15.7121V19.8798C177.41 20.765 177.422 21.5641 177.446 22.2772C177.493 22.9657 177.54 23.4451 177.587 23.7156L179.779 24.2688L179.708 25.5966H172.673Z" fill="white"/>
<path d="M189.465 25.8917C188.098 25.8917 186.861 25.572 185.753 24.9327C184.669 24.2934 183.797 23.3837 183.137 22.2034C182.501 20.9986 182.183 19.5847 182.183 17.9619C182.183 16.2161 182.524 14.7039 183.208 13.4253C183.891 12.1467 184.787 11.1632 185.895 10.4747C187.002 9.76163 188.192 9.4174 189.465 9.44198C191.303 9.46657 192.741 10.1059 193.778 11.3599C194.815 12.6139 195.333 14.3843 195.333 16.671V17.3349H184.481V15.7121H193L192.611 16.1915V15.417C192.611 13.9909 192.305 12.8967 191.692 12.1344C191.079 11.3722 190.243 10.9911 189.182 10.9911C188.522 10.9911 187.886 11.2001 187.273 11.6181C186.661 12.0115 186.166 12.6262 185.789 13.4622C185.411 14.2736 185.223 15.3063 185.223 16.5604V17.0029C185.223 19.0192 185.694 20.5929 186.637 21.7239C187.603 22.855 188.841 23.4205 190.349 23.4205C191.174 23.4205 191.916 23.2484 192.576 22.9042C193.236 22.5599 193.872 22.0067 194.485 21.2445L195.369 22.0928C194.709 23.3714 193.872 24.3303 192.859 24.9696C191.845 25.5843 190.714 25.8917 189.465 25.8917Z" fill="white"/>
</svg>
