<svg width="59" height="56" viewBox="0 0 59 56" fill="none" xmlns="http://www.w3.org/2000/svg">
<path d="M12.3313 19.3817H1.61328C12.3313 -6.01823 45.9534 -6.89913 56.6714 19.3817H45.9534C38.025 6.60841 19.966 6.60841 12.3313 19.3817Z" fill="#2E6663"/>
<path d="M9.83705 28.9253H0C0 40.5242 6.60697 50.8017 16.8845 55.5L21.8764 46.9844C18.5575 45.878 15.9075 43.8198 13.9481 41.2619C11.2266 37.7095 9.83705 33.1933 9.83705 28.9253Z" fill="url(#paint0_linear_4368_3206)"/>
<path d="M21.8776 46.9843C18.5587 45.878 15.9087 43.8198 13.9492 41.2619L20.9967 29.0721H37.5875L44.4881 41.2619C42.5286 43.8197 39.8787 45.878 36.5597 46.9843L29.2187 34.6513L21.8776 46.9843Z" fill="url(#paint1_linear_4368_3206)"/>
<path d="M48.5965 28.9253H58.4336C58.4336 40.5242 51.8266 50.8017 41.5491 55.5L36.5572 46.9844C39.8761 45.878 42.5261 43.8198 44.4855 41.2619C47.207 37.7095 48.5965 33.1933 48.5965 28.9253Z" fill="url(#paint2_linear_4368_3206)"/>
<defs>
<linearGradient id="paint0_linear_4368_3206" x1="3.96418" y1="28.9253" x2="19.3805" y2="51.0954" gradientUnits="userSpaceOnUse">
<stop stop-color="#559894"/>
<stop offset="0.987935" stop-color="#004D48"/>
</linearGradient>
<linearGradient id="paint1_linear_4368_3206" x1="16.7388" y1="45.5161" x2="41.8453" y2="45.2225" gradientUnits="userSpaceOnUse">
<stop stop-color="#004D48"/>
<stop offset="0.359056" stop-color="#559894"/>
<stop offset="0.497317" stop-color="#6ABDB9"/>
<stop offset="0.723958" stop-color="#559894"/>
<stop offset="0.987935" stop-color="#004D48"/>
</linearGradient>
<linearGradient id="paint2_linear_4368_3206" x1="54.4694" y1="28.9253" x2="39.0531" y2="51.0954" gradientUnits="userSpaceOnUse">
<stop stop-color="#559894"/>
<stop offset="0.987935" stop-color="#004D48"/>
</linearGradient>
</defs>
</svg>
